<svg width="80" height="45" viewBox="0 0 80 45" fill="none" xmlns="http://www.w3.org/2000/svg">
<path d="M37.005 17.7237V17.5725C37.1 17.3662 37.195 17.1737 37.3058 16.9812C38.1822 15.3729 38.3291 13.5369 37.7175 11.8387C37.6856 11.5962 37.568 11.3682 37.3809 11.186C37.1938 11.0039 36.9463 10.8764 36.6725 10.8212C35.4946 10.75 34.3262 11.0476 33.3792 11.66V11.9075C33.4832 13.0119 33.4513 14.1227 33.2842 15.2212C33.1943 15.7143 33.2361 16.2187 33.4063 16.6955C33.5765 17.1723 33.8706 17.6088 34.2658 17.9712C34.557 18.2402 34.9075 18.4555 35.2965 18.6043C35.6855 18.7532 36.105 18.8325 36.53 18.8375C36.6653 18.4591 36.8238 18.0873 37.005 17.7237V17.7237ZM35.8333 11.7975C35.7444 11.71 35.6939 11.598 35.6908 11.4812C35.7004 11.4468 35.718 11.4144 35.7425 11.386C35.767 11.3576 35.7979 11.3339 35.8333 11.3162C36.067 11.2109 36.3347 11.177 36.5933 11.22C36.9892 11.22 37.385 11.44 37.3533 11.6875C37.2942 11.8237 37.1878 11.9406 37.0488 12.0219C36.9098 12.1032 36.7451 12.1449 36.5775 12.1412H36.4825C36.2223 12.1056 35.989 11.982 35.8333 11.7975Z" fill="#9747FF"/>
<path d="M32.4767 15.125C32.6195 14.0756 32.6513 13.017 32.5717 11.9625V11.5775C32.5093 9.30761 33.3729 7.09163 35.01 5.32125C33.4267 4.88125 29.6267 3.94625 27.2992 5.45875C25.8742 6.33875 25.2092 7.98875 25.3517 10.34C25.6671 12.3942 26.197 14.4192 26.935 16.39C28.0117 19.4425 29.2308 21.3675 30.2758 21.6838C30.4342 21.6838 30.925 21.8625 31.6375 21.12C32.6508 20.075 33.585 19.1813 34.0125 18.7825L33.7117 18.5213C33.2158 18.0776 32.8459 17.5396 32.6315 16.95C32.4171 16.3604 32.3641 15.7355 32.4767 15.125V15.125ZM38.0183 19.8C37.765 19.7175 37.6383 19.6625 37.3533 19.9513C37.1839 20.0993 37.0302 20.2604 36.8942 20.4325C36.34 21.0238 36.1025 21.23 34.5033 21.5188C34.2868 21.55 34.0745 21.6007 33.87 21.67C34.0461 21.7771 34.2454 21.852 34.4558 21.89C35.1644 22.0981 35.931 22.1036 36.6434 21.9056C37.3558 21.7077 37.9764 21.3167 38.4142 20.79C38.4551 20.7148 38.4763 20.6326 38.4763 20.5494C38.4763 20.4662 38.4551 20.384 38.4142 20.3088C38.3641 20.1007 38.2219 19.918 38.0183 19.8V19.8ZM47.9775 11.7975C48.051 11.4387 48.0933 11.0756 48.1042 10.7113C47.0592 10.6013 45.8558 10.615 45.3808 11.2063C44.4625 12.3475 46.2675 15.1663 46.9642 16.3625C47.1172 16.5748 47.2547 16.7952 47.3758 17.0225C47.439 17.1709 47.5186 17.3136 47.6133 17.4488C48.0256 16.515 48.1137 15.4968 47.8667 14.52C47.7909 14.0416 47.7539 13.5592 47.7558 13.0763C47.7911 12.6456 47.8652 12.2181 47.9775 11.7975V11.7975ZM47.0908 11.5775C46.9537 11.6989 46.7768 11.7805 46.5842 11.8113H46.4892C46.3386 11.8118 46.1915 11.7726 46.0671 11.699C45.9427 11.6253 45.847 11.5206 45.7925 11.3988C45.7925 11.2063 46.1092 11.0688 46.4892 11.0138C46.8692 10.9588 47.2492 11.0138 47.2808 11.22C47.2736 11.3561 47.2054 11.4844 47.0908 11.5775V11.5775Z" fill="#9747FF"/>
<path d="M46.9167 6.70999C47.9597 7.71727 48.7043 8.93021 49.0858 10.2437C49.0942 10.3123 49.0942 10.3814 49.0858 10.45C49.091 10.9386 49.0433 11.4266 48.9433 11.9075C48.8683 12.2988 48.8207 12.6937 48.8008 13.09C48.7976 13.5501 48.8347 14.0098 48.9117 14.465C49.2315 15.7267 49.0297 17.0458 48.3417 18.1912L48.4525 18.3012C51.9675 13.5025 53.2025 7.93374 52.0783 6.70999C51.3582 5.9238 50.4398 5.29177 49.3939 4.86265C48.3479 4.43353 47.2025 4.21879 46.0458 4.23499C45.1788 4.22448 44.3131 4.29828 43.465 4.45499C44.7949 4.97359 45.9743 5.74409 46.9167 6.70999V6.70999Z" fill="#9747FF"/>
<path d="M54.2792 19.25C54.1683 18.975 53.6933 18.0812 51.9517 18.3975C51.4303 18.4938 50.9008 18.5536 50.3683 18.5762C51.7977 16.477 52.8948 14.22 53.63 11.8662C54.2158 9.87249 54.675 7.20499 53.4558 5.84374C52.5604 4.85731 51.4138 4.06457 50.1061 3.52778C48.7984 2.99098 47.3653 2.72475 45.9192 2.74999C44.6006 2.74265 43.288 2.90483 42.0242 3.23124C41.2658 3.11549 40.4982 3.05113 39.7283 3.03874C38.3655 3.01442 37.0201 3.30887 35.8333 3.89124C34.9178 3.62923 33.981 3.427 33.0308 3.28624C31.9018 3.03626 30.7262 2.9878 29.575 3.14378C28.4238 3.29977 27.321 3.65696 26.3333 4.19374C24.37 5.38999 23.4675 7.47999 23.6258 10.4087C23.9281 12.5865 24.4581 14.7357 25.2092 16.83C25.6559 18.1403 26.2444 19.4109 26.9667 20.625C27.4814 21.7431 28.4743 22.6448 29.7375 23.1412C30.1953 23.2707 30.6846 23.2918 31.155 23.2024C31.6253 23.113 32.0597 22.9163 32.4133 22.6325C32.8371 23.0329 33.3881 23.3152 33.9967 23.4437C35.2274 23.7382 36.5357 23.6705 37.7175 23.2512V24.365C37.7042 25.4613 37.8694 26.5538 38.2083 27.61C38.2128 27.6695 38.2128 27.7292 38.2083 27.7887C38.4195 28.4274 38.8051 29.0123 39.3325 29.4937C39.9702 30.0119 40.8188 30.2889 41.6917 30.2637C42.0648 30.265 42.4368 30.2281 42.8 30.1537C43.4882 30.0809 44.1525 29.8889 44.7536 29.5889C45.3547 29.2889 45.8802 28.8872 46.2992 28.4075C47.3716 26.7303 47.8714 24.8225 47.74 22.9075V22.55H48.0092C49.308 22.6281 50.6097 22.4397 51.8092 22C52.5217 21.6837 54.8333 20.625 54.2792 19.25V19.25ZM51.4133 21.2712C50.5078 21.5879 49.5394 21.7467 48.5633 21.7387C48.1408 21.7485 47.7189 21.7022 47.3125 21.6012C47.1542 22.8937 46.8058 25.3 46.6 26.3037C46.5392 27.1136 46.1465 27.8777 45.493 28.4578C44.8396 29.038 43.9685 29.3957 43.0375 29.4662C42.6939 29.5294 42.3437 29.5617 41.9925 29.5625C41.3031 29.5485 40.6379 29.3395 40.0977 28.9673C39.5576 28.595 39.1722 28.0798 39 27.5C38.5918 25.6617 38.4429 23.7871 38.5567 21.9175C37.7859 22.5225 36.777 22.8474 35.7383 22.825C35.2357 22.8177 34.736 22.7577 34.25 22.6462C34.1075 22.6462 32.8725 22.33 32.8883 21.6425C32.9042 20.955 33.9333 20.8312 34.3133 20.7625C35.675 20.515 35.77 20.4187 36.1975 19.9512C36.2907 19.8365 36.3912 19.7264 36.4983 19.6212C35.8841 19.6013 35.2831 19.4602 34.7408 19.2087C34.3767 19.5525 33.3792 20.4875 32.3025 21.6012C32.1068 21.854 31.8462 22.0638 31.5412 22.2141C31.2362 22.3644 30.8952 22.4512 30.545 22.4675C30.3612 22.4904 30.1746 22.4904 29.9908 22.4675C28.5975 22 27.2833 20.0062 26.08 16.5C25.3329 14.4704 24.8029 12.3853 24.4967 10.2712C24.3383 7.63124 25.13 5.76124 26.8242 4.77124C29.8642 2.90124 34.7408 4.34499 35.8492 4.68874C36.9769 4.04014 38.3141 3.72212 39.665 3.78124C40.413 3.78192 41.1578 3.86509 41.8817 4.02874C43.1558 3.6522 44.4942 3.46622 45.84 3.47874C47.1472 3.44753 48.4449 3.67956 49.6316 4.15666C50.8183 4.63376 51.8617 5.34297 52.68 6.22874C53.7725 7.43874 53.0442 10.3537 52.68 11.5775C51.8676 14.2163 50.5798 16.7269 48.8642 19.0162C49.1175 19.1675 49.8933 19.4425 52.0308 19.0162C52.7592 18.8787 53.1867 19.0162 53.3292 19.36C53.6775 20.1162 52.2208 20.9137 51.4133 21.2437V21.2712Z" fill="#9747FF"/>
<path d="M47.5975 18.6862C47.194 18.2724 46.8632 17.8091 46.6158 17.3112C46.6158 17.215 46.4258 16.9812 46.2517 16.72C45.3333 15.345 43.4175 12.2925 44.6683 10.7525C45.0894 10.3636 45.6234 10.0805 46.2141 9.93293C46.8048 9.78533 47.4303 9.7787 48.025 9.91375C47.618 8.93847 47.0119 8.03487 46.2358 7.24625C45.4446 6.3997 44.4486 5.71456 43.3186 5.23934C42.1886 4.76411 40.9521 4.51043 39.6967 4.49625C38.9558 4.45569 38.2134 4.55105 37.5178 4.7761C36.8222 5.00116 36.1889 5.35087 35.6592 5.8025C34.3111 7.18169 33.5409 8.91686 33.4742 10.725L33.7117 10.615C34.37 10.3066 35.0901 10.1106 35.8333 10.0375C36.1409 9.97564 36.4598 9.96952 36.7702 10.0195C37.0806 10.0696 37.3758 10.1746 37.6373 10.3282C37.8988 10.4817 38.1211 10.6805 38.2902 10.912C38.4593 11.1435 38.5715 11.4028 38.62 11.6737C39.271 13.5333 39.1074 15.5363 38.1608 17.2975C38.0579 17.471 37.968 17.6501 37.8917 17.8337V17.985C37.7333 18.3562 37.5908 18.7 37.4958 18.9887C37.8009 18.9383 38.1164 18.9719 38.3983 19.085C38.6365 19.1834 38.8475 19.3253 39.0168 19.5009C39.1862 19.6764 39.3101 19.8816 39.38 20.1025V20.3225C39.3877 20.3635 39.3877 20.4053 39.38 20.4462C39.2094 22.6964 39.3263 24.956 39.7283 27.1837C39.7996 27.4748 39.9426 27.7489 40.1474 27.9874C40.3522 28.2259 40.614 28.4231 40.9148 28.5655C41.2156 28.7079 41.5483 28.7921 41.8901 28.8123C42.232 28.8325 42.5747 28.7882 42.895 28.6825C43.6489 28.6383 44.3569 28.3519 44.8809 27.8791C45.4048 27.4063 45.7073 26.7809 45.7292 26.125C45.9667 24.915 46.4417 21.5187 46.505 20.79C46.505 19.3325 47.3283 19.0437 47.835 18.92L47.5975 18.6862Z" fill="#9747FF"/>
<path d="M48.5 19.7037L48.3733 19.6212H48.1833C47.7717 19.7175 47.3917 19.8137 47.4392 20.7212C47.9064 20.8822 48.4127 20.9389 48.9117 20.8862C49.6603 20.8589 50.3986 20.7242 51.0967 20.4875C51.5545 20.3081 51.9767 20.0668 52.3475 19.7725C51.0974 20.1531 49.731 20.1287 48.5 19.7037V19.7037Z" fill="#9747FF"/>
<path d="M8.07955 36H7.02273C6.96023 35.696 6.85085 35.429 6.6946 35.1989C6.54119 34.9688 6.35369 34.7756 6.1321 34.6193C5.91335 34.4602 5.67045 34.3409 5.40341 34.2614C5.13636 34.1818 4.85795 34.142 4.56818 34.142C4.03977 34.142 3.56108 34.2756 3.1321 34.5426C2.70597 34.8097 2.36648 35.2031 2.11364 35.723C1.86364 36.2429 1.73864 36.8807 1.73864 37.6364C1.73864 38.392 1.86364 39.0298 2.11364 39.5497C2.36648 40.0696 2.70597 40.4631 3.1321 40.7301C3.56108 40.9972 4.03977 41.1307 4.56818 41.1307C4.85795 41.1307 5.13636 41.0909 5.40341 41.0114C5.67045 40.9318 5.91335 40.8139 6.1321 40.6577C6.35369 40.4986 6.54119 40.304 6.6946 40.0739C6.85085 39.8409 6.96023 39.5739 7.02273 39.2727H8.07955C8 39.7187 7.85511 40.1179 7.64489 40.4702C7.43466 40.8224 7.1733 41.1222 6.8608 41.3693C6.5483 41.6136 6.19744 41.7997 5.80824 41.9276C5.42188 42.0554 5.00852 42.1193 4.56818 42.1193C3.82386 42.1193 3.16193 41.9375 2.58239 41.5739C2.00284 41.2102 1.54688 40.6932 1.21449 40.0227C0.882102 39.3523 0.715909 38.5568 0.715909 37.6364C0.715909 36.7159 0.882102 35.9205 1.21449 35.25C1.54688 34.5795 2.00284 34.0625 2.58239 33.6989C3.16193 33.3352 3.82386 33.1534 4.56818 33.1534C5.00852 33.1534 5.42188 33.2173 5.80824 33.3452C6.19744 33.473 6.5483 33.6605 6.8608 33.9077C7.1733 34.152 7.43466 34.4503 7.64489 34.8026C7.85511 35.152 8 35.5511 8.07955 36ZM10.6566 33.2727V42H9.65092V33.2727H10.6566ZM15.1577 42.1364C14.5668 42.1364 14.0483 41.9957 13.6023 41.7145C13.1591 41.4332 12.8125 41.0398 12.5625 40.5341C12.3153 40.0284 12.1918 39.4375 12.1918 38.7614C12.1918 38.0795 12.3153 37.4844 12.5625 36.9759C12.8125 36.4673 13.1591 36.0724 13.6023 35.7912C14.0483 35.5099 14.5668 35.3693 15.1577 35.3693C15.7486 35.3693 16.2656 35.5099 16.7088 35.7912C17.1548 36.0724 17.5014 36.4673 17.7486 36.9759C17.9986 37.4844 18.1236 38.0795 18.1236 38.7614C18.1236 39.4375 17.9986 40.0284 17.7486 40.5341C17.5014 41.0398 17.1548 41.4332 16.7088 41.7145C16.2656 41.9957 15.7486 42.1364 15.1577 42.1364ZM15.1577 41.233C15.6065 41.233 15.9759 41.1179 16.2656 40.8878C16.5554 40.6577 16.7699 40.3551 16.9091 39.9801C17.0483 39.6051 17.1179 39.1989 17.1179 38.7614C17.1179 38.3239 17.0483 37.9162 16.9091 37.5384C16.7699 37.1605 16.5554 36.8551 16.2656 36.6222C15.9759 36.3892 15.6065 36.2727 15.1577 36.2727C14.7088 36.2727 14.3395 36.3892 14.0497 36.6222C13.7599 36.8551 13.5455 37.1605 13.4062 37.5384C13.267 37.9162 13.1974 38.3239 13.1974 38.7614C13.1974 39.1989 13.267 39.6051 13.4062 39.9801C13.5455 40.3551 13.7599 40.6577 14.0497 40.8878C14.3395 41.1179 14.7088 41.233 15.1577 41.233ZM22.5053 35.4545V36.3068H19.1133V35.4545H22.5053ZM20.1019 33.8864H21.1076V40.125C21.1076 40.4091 21.1488 40.6222 21.2312 40.7642C21.3164 40.9034 21.4244 40.9972 21.555 41.0455C21.6886 41.0909 21.8292 41.1136 21.9769 41.1136C22.0877 41.1136 22.1786 41.108 22.2496 41.0966C22.3207 41.0824 22.3775 41.071 22.4201 41.0625L22.6246 41.9659C22.5565 41.9915 22.4613 42.017 22.3391 42.0426C22.217 42.071 22.0621 42.0852 21.8746 42.0852C21.5906 42.0852 21.3121 42.0241 21.0394 41.902C20.7695 41.7798 20.5451 41.5938 20.3661 41.3438C20.19 41.0938 20.1019 40.7784 20.1019 40.3977V33.8864ZM25.1644 38.0625V42H24.1587V33.2727H25.1644V36.4773H25.2496C25.4031 36.1392 25.6332 35.8707 25.94 35.6719C26.2496 35.4702 26.6616 35.3693 27.1758 35.3693C27.6218 35.3693 28.0124 35.4588 28.3477 35.6378C28.6829 35.8139 28.9428 36.0852 29.1275 36.4517C29.315 36.8153 29.4087 37.2784 29.4087 37.8409V42H28.4031V37.9091C28.4031 37.3892 28.2681 36.9872 27.9982 36.7031C27.7312 36.4162 27.3604 36.2727 26.886 36.2727C26.5565 36.2727 26.261 36.3423 25.9996 36.4815C25.7411 36.6207 25.5366 36.8239 25.386 37.0909C25.2383 37.358 25.1644 37.6818 25.1644 38.0625ZM31.2486 42V35.4545H32.2543V42H31.2486ZM31.7599 34.3636C31.5639 34.3636 31.3949 34.2969 31.2528 34.1634C31.1136 34.0298 31.044 33.8693 31.044 33.6818C31.044 33.4943 31.1136 33.3338 31.2528 33.2003C31.3949 33.0668 31.5639 33 31.7599 33C31.956 33 32.1236 33.0668 32.2628 33.2003C32.4048 33.3338 32.4759 33.4943 32.4759 33.6818C32.4759 33.8693 32.4048 34.0298 32.2628 34.1634C32.1236 34.2969 31.956 34.3636 31.7599 34.3636ZM35.1019 38.0625V42H34.0962V35.4545H35.0678V36.4773H35.1531C35.3065 36.1449 35.5394 35.8778 35.8519 35.6761C36.1644 35.4716 36.5678 35.3693 37.0621 35.3693C37.5053 35.3693 37.8931 35.4602 38.2255 35.642C38.5579 35.821 38.8164 36.0938 39.0011 36.4602C39.1857 36.8239 39.2781 37.2841 39.2781 37.8409V42H38.2724V37.9091C38.2724 37.3949 38.1388 36.9943 37.8718 36.7074C37.6048 36.4176 37.2383 36.2727 36.7724 36.2727C36.4513 36.2727 36.1644 36.3423 35.9116 36.4815C35.6616 36.6207 35.4641 36.8239 35.3192 37.0909C35.1744 37.358 35.1019 37.6818 35.1019 38.0625ZM43.7578 44.5909C43.272 44.5909 42.8544 44.5284 42.505 44.4034C42.1555 44.2812 41.8643 44.1193 41.6314 43.9176C41.4013 43.7188 41.218 43.5057 41.0817 43.2784L41.8828 42.7159C41.9737 42.8352 42.0888 42.9716 42.228 43.125C42.3672 43.2812 42.5575 43.4162 42.799 43.5298C43.0433 43.6463 43.3629 43.7045 43.7578 43.7045C44.2862 43.7045 44.7223 43.5767 45.0661 43.321C45.4098 43.0653 45.5817 42.6648 45.5817 42.1193V40.7898H45.4964C45.4226 40.9091 45.3175 41.0568 45.1811 41.233C45.0476 41.4062 44.8544 41.5611 44.6016 41.6974C44.3516 41.831 44.0135 41.8977 43.5874 41.8977C43.0589 41.8977 42.5845 41.7727 42.1641 41.5227C41.7464 41.2727 41.4155 40.9091 41.1712 40.4318C40.9297 39.9545 40.8089 39.375 40.8089 38.6932C40.8089 38.0227 40.9268 37.4389 41.1626 36.9418C41.3984 36.4418 41.7266 36.0554 42.147 35.7827C42.5675 35.5071 43.0533 35.3693 43.6044 35.3693C44.0305 35.3693 44.3686 35.4403 44.6186 35.5824C44.8714 35.7216 45.0646 35.8807 45.1982 36.0597C45.3345 36.2358 45.4396 36.3807 45.5135 36.4943H45.6158V35.4545H46.5874V42.1875C46.5874 42.75 46.4595 43.2074 46.2038 43.5597C45.951 43.9148 45.6101 44.1747 45.1811 44.3395C44.755 44.5071 44.2805 44.5909 43.7578 44.5909ZM43.7237 40.9943C44.1271 40.9943 44.468 40.902 44.7464 40.7173C45.0249 40.5327 45.2365 40.267 45.3814 39.9205C45.5263 39.5739 45.5987 39.1591 45.5987 38.6761C45.5987 38.2045 45.5277 37.7884 45.3857 37.4276C45.2436 37.0668 45.0334 36.7841 44.755 36.5795C44.4766 36.375 44.1328 36.2727 43.7237 36.2727C43.2976 36.2727 42.9425 36.3807 42.6584 36.5966C42.3771 36.8125 42.1655 37.1023 42.0234 37.4659C41.8842 37.8295 41.8146 38.233 41.8146 38.6761C41.8146 39.1307 41.8857 39.5327 42.0277 39.8821C42.1726 40.2287 42.3857 40.5014 42.6669 40.7003C42.951 40.8963 43.3033 40.9943 43.7237 40.9943ZM56.4396 36.9205L55.5362 37.1761C55.4794 37.0256 55.3956 36.8793 55.2848 36.7372C55.1768 36.5923 55.0291 36.473 54.8416 36.3793C54.6541 36.2855 54.4141 36.2386 54.1214 36.2386C53.7209 36.2386 53.3871 36.331 53.12 36.5156C52.8558 36.6974 52.7237 36.929 52.7237 37.2102C52.7237 37.4602 52.8146 37.6577 52.9964 37.8026C53.1783 37.9474 53.4624 38.0682 53.8487 38.1648L54.8203 38.4034C55.4055 38.5455 55.8416 38.7628 56.1286 39.0554C56.4155 39.3452 56.5589 39.7187 56.5589 40.1761C56.5589 40.5511 56.451 40.8864 56.2351 41.1818C56.022 41.4773 55.7237 41.7102 55.3402 41.8807C54.9567 42.0511 54.5107 42.1364 54.0021 42.1364C53.3345 42.1364 52.782 41.9915 52.3445 41.7017C51.907 41.4119 51.63 40.9886 51.5135 40.4318L52.468 40.1932C52.5589 40.5455 52.7308 40.8097 52.9837 40.9858C53.2393 41.1619 53.5732 41.25 53.9851 41.25C54.4538 41.25 54.826 41.1506 55.1016 40.9517C55.38 40.75 55.5192 40.5085 55.5192 40.2273C55.5192 40 55.4396 39.8097 55.2805 39.6562C55.1214 39.5 54.8771 39.3835 54.5476 39.3068L53.4567 39.0511C52.8572 38.9091 52.4169 38.6889 52.1357 38.3906C51.8572 38.0895 51.718 37.7131 51.718 37.2614C51.718 36.892 51.8217 36.5653 52.0291 36.2812C52.2393 35.9972 52.5249 35.7741 52.8857 35.6122C53.2493 35.4503 53.6612 35.3693 54.1214 35.3693C54.7692 35.3693 55.2777 35.5114 55.647 35.7955C56.0192 36.0795 56.2834 36.4545 56.4396 36.9205ZM60.9194 35.4545V36.3068H57.5273V35.4545H60.9194ZM58.516 33.8864H59.5217V40.125C59.5217 40.4091 59.5629 40.6222 59.6452 40.7642C59.7305 40.9034 59.8384 40.9972 59.9691 41.0455C60.1026 41.0909 60.2433 41.1136 60.391 41.1136C60.5018 41.1136 60.5927 41.108 60.6637 41.0966C60.7347 41.0824 60.7915 41.071 60.8342 41.0625L61.0387 41.9659C60.9705 41.9915 60.8754 42.017 60.7532 42.0426C60.631 42.071 60.4762 42.0852 60.2887 42.0852C60.0046 42.0852 59.7262 42.0241 59.4535 41.902C59.1836 41.7798 58.9592 41.5938 58.7802 41.3438C58.604 41.0938 58.516 40.7784 58.516 40.3977V33.8864ZM65.021 42.1364C64.43 42.1364 63.9116 41.9957 63.4656 41.7145C63.0224 41.4332 62.6758 41.0398 62.4258 40.5341C62.1786 40.0284 62.055 39.4375 62.055 38.7614C62.055 38.0795 62.1786 37.4844 62.4258 36.9759C62.6758 36.4673 63.0224 36.0724 63.4656 35.7912C63.9116 35.5099 64.43 35.3693 65.021 35.3693C65.6119 35.3693 66.1289 35.5099 66.5721 35.7912C67.0181 36.0724 67.3647 36.4673 67.6119 36.9759C67.8619 37.4844 67.9869 38.0795 67.9869 38.7614C67.9869 39.4375 67.8619 40.0284 67.6119 40.5341C67.3647 41.0398 67.0181 41.4332 66.5721 41.7145C66.1289 41.9957 65.6119 42.1364 65.021 42.1364ZM65.021 41.233C65.4698 41.233 65.8391 41.1179 66.1289 40.8878C66.4187 40.6577 66.6332 40.3551 66.7724 39.9801C66.9116 39.6051 66.9812 39.1989 66.9812 38.7614C66.9812 38.3239 66.9116 37.9162 66.7724 37.5384C66.6332 37.1605 66.4187 36.8551 66.1289 36.6222C65.8391 36.3892 65.4698 36.2727 65.021 36.2727C64.5721 36.2727 64.2028 36.3892 63.913 36.6222C63.6232 36.8551 63.4087 37.1605 63.2695 37.5384C63.1303 37.9162 63.0607 38.3239 63.0607 38.7614C63.0607 39.1989 63.1303 39.6051 63.2695 39.9801C63.4087 40.3551 63.6232 40.6577 63.913 40.8878C64.2028 41.1179 64.5721 41.233 65.021 41.233ZM69.522 42V35.4545H70.4936V36.4432H70.5618C70.6811 36.1193 70.897 35.8565 71.2095 35.6548C71.522 35.4531 71.8743 35.3523 72.2663 35.3523C72.3402 35.3523 72.4325 35.3537 72.5433 35.3565C72.6541 35.3594 72.7379 35.3636 72.7947 35.3693V36.392C72.7607 36.3835 72.6825 36.3707 72.5604 36.3537C72.4411 36.3338 72.3146 36.3239 72.1811 36.3239C71.8629 36.3239 71.5788 36.3906 71.3288 36.5241C71.0817 36.6548 70.8857 36.8366 70.7408 37.0696C70.5987 37.2997 70.5277 37.5625 70.5277 37.858V42H69.522ZM76.532 42.1364C75.9013 42.1364 75.3572 41.9972 74.8999 41.7188C74.4453 41.4375 74.0945 41.0455 73.8473 40.5426C73.603 40.0369 73.4808 39.4489 73.4808 38.7784C73.4808 38.108 73.603 37.517 73.8473 37.0057C74.0945 36.4915 74.4382 36.0909 74.8786 35.804C75.3217 35.5142 75.8388 35.3693 76.4297 35.3693C76.7706 35.3693 77.1072 35.4261 77.4396 35.5398C77.772 35.6534 78.0746 35.8381 78.3473 36.0938C78.62 36.3466 78.8374 36.6818 78.9993 37.0994C79.1612 37.517 79.2422 38.0312 79.2422 38.642V39.0682H74.1967V38.1989H78.2195C78.2195 37.8295 78.1456 37.5 77.9979 37.2102C77.853 36.9205 77.6456 36.6918 77.3757 36.5241C77.1087 36.3565 76.7933 36.2727 76.4297 36.2727C76.0291 36.2727 75.6825 36.3722 75.3899 36.571C75.1001 36.767 74.8771 37.0227 74.7209 37.3381C74.5646 37.6534 74.4865 37.9915 74.4865 38.3523V38.9318C74.4865 39.4261 74.5717 39.8452 74.7422 40.1889C74.9155 40.5298 75.1555 40.7898 75.4624 40.9688C75.7692 41.1449 76.1257 41.233 76.532 41.233C76.7962 41.233 77.0348 41.196 77.2479 41.1222C77.4638 41.0455 77.6499 40.9318 77.8061 40.7812C77.9624 40.6278 78.0831 40.4375 78.1683 40.2102L79.1399 40.483C79.0376 40.8125 78.8658 41.1023 78.6243 41.3523C78.3828 41.5994 78.0845 41.7926 77.7294 41.9318C77.3743 42.0682 76.9751 42.1364 76.532 42.1364Z" fill="#4B005E"/>
</svg>
